<svg id="_x33_0" enable-background="new 0 0 64 64" height="512" viewBox="0 0 64 64" width="512" xmlns="http://www.w3.org/2000/svg"><g><path d="m18.78 49.19-.29-.868c1.216-.705 2.119-1.89 2.409-3.31h.101c2.206 0 4-1.794 4-4 0-.815-.248-1.573-.668-2.206l.425-1.7c.161-.642.243-1.305.243-1.97 0-4.479-3.644-8.123-8.123-8.123h-1.877v-2.114c2.279-.465 4-2.484 4-4.899v-1.063c0-.298.131-.577.36-.768l2.584-2.154c1.943-1.619 3.056-3.995 3.056-6.524 0-4.681-3.81-8.491-8.491-8.491h-5.018c-4.681 0-8.491 3.81-8.491 8.491 0 2.528 1.113 4.905 3.055 6.523l2.586 2.154c.228.191.359.471.359.769v1.063c0 2.414 1.721 4.434 4 4.899v2.114h-1.877c-4.479 0-8.123 3.643-8.123 8.123 0 .665.082 1.328.243 1.97l.425 1.701c-.42.633-.668 1.39-.668 2.206 0 2.206 1.794 4 4 4h.101c.289 1.419 1.193 2.604 2.408 3.31l-.289.867c-4.867 1.467-8.22 5.941-8.22 11.069v2.753l21.25.006 2.72-.001c1.31-.002 2.03-.003 2.03-1.004v-1.754c0-5.128-3.353-9.602-8.22-11.069zm-11.445-34.712c-1.483-1.237-2.335-3.054-2.335-4.987 0-3.579 2.912-6.491 6.491-6.491h5.018c3.579 0 6.491 2.912 6.491 6.491 0 1.933-.852 3.75-2.336 4.986l-2.584 2.154c-.686.572-1.08 1.413-1.08 2.306v.063h-2v-5.184c1.161-.414 2-1.514 2-2.816 0-1.654-1.346-3-3-3s-3 1.346-3 3c0 1.302.839 2.402 2 2.816v5.184h-2v-.063c0-.893-.394-1.733-1.079-2.305zm5.665-3.478c0-.552.448-1 1-1s1 .448 1 1-.448 1-1 1-1-.448-1-1zm-1.816 10h5.631c-.414 1.161-1.514 2-2.816 2s-2.401-.839-2.815-2zm8.199 30.551-.854 2.012-2.452-1.471 2.02-1.01c.443.129.874.283 1.286.469zm-5.663 5.462h.559l1.335 4.005c-1.054 0-2.137 0-3.229-.001zm.634-2h-.707l-.575-1.276.928-.558.929.557zm6.646-12v-4c1.103 0 2 .897 2 2s-.897 2-2 2zm-16-2c0-1.103.897-2 2-2v4c-1.103 0-2-.898-2-2zm2.1-4h-.1c-.582 0-1.131.131-1.631.355l-.186-.748c-.121-.483-.183-.983-.183-1.484 0-3.376 2.747-6.123 6.123-6.123h5.754c3.376 0 6.123 2.747 6.123 6.123 0 .501-.062 1.001-.183 1.485l-.187.747c-.499-.224-1.049-.356-1.631-.356h-.948l-5.972-.597c-1.755-.175-3.079-1.638-3.079-3.402h-2c0 .449.054.886.156 1.304-1.073.556-1.807 1.547-2.056 2.696zm1.9.854c0-.718.375-1.367.987-1.726.877 1.243 2.269 2.102 3.894 2.265l5.119.512v5.095c0 1.654-1.346 3-3 3h-4c-1.654 0-3-1.346-3-3zm3 11.146h4c.203 0 .396-.036.592-.06l.184.553-2.776 1.389-2.777-1.389.184-.553c.197.023.39.06.593.06zm-2.097 2.07 2.02 1.01-2.452 1.471-.854-2.012c.412-.187.843-.341 1.286-.469zm-6.903 9.176c0-3.11 1.496-5.923 3.878-7.684l1.651 3.887 2.815-1.689.584 1.295-1.649 4.948c-2.595-.001-5.136-.001-7.279-.002zm22 .758c-1.375.001-4.082.001-7.278.001l-1.65-4.949.584-1.295 2.815 1.689 1.651-3.887c2.382 1.76 3.878 4.573 3.878 7.683z"/><path d="m17.789 42.671.105-.211-1.789-.895-.105.211c-.381.763-1.147 1.236-2 1.236h-3v2h3c1.615.001 3.067-.897 3.789-2.341z"/><path d="m63 37v-2.754c0-3.436-1.51-6.572-3.967-8.713 1.255-1.406 1.967-3.219 1.967-5.138v-8.395c0-6.065-4.935-11-11-11s-11 4.935-11 11v8.395c0 1.92.712 3.732 1.967 5.138-2.457 2.141-3.967 5.277-3.967 8.713v2.754h12v10h-1.983l.024 2.789.008.014-.014.008-2.418-1.413-2.979 5.198 2.435 1.395-2.435 1.414 2.979 5.198 2.399-1.411v2.808h5.967l-.019-2.811 2.418 1.413 2.979-5.198-2.417-1.404 2.418-1.404-2.979-5.198-2.393 1.409-.007-2.807h-1.983v-10zm-11.004 14.543.012.006c.018.01.035.02.053.029l.024.012c.595.305 1.309.287 1.89-.053l.676-.396.987 1.724-.715.415c-.607.354-.984 1.011-.982 1.724-.002.705.375 1.362.982 1.716l.715.415-.987 1.724-.678-.396c-.615-.356-1.378-.355-2.003.011-.608.354-.986 1.014-.986 1.719v.807h-1.967v-.809c0-.705-.378-1.364-.995-1.725-.618-.361-1.382-.363-1.996-.004l-.676.396-.987-1.724.715-.415c.607-.354.984-1.011.982-1.724.002-.705-.375-1.362-.983-1.717l-.714-.414.987-1.724.678.396c.583.339 1.298.354 1.896.048l.107-.059c.608-.354.986-1.014.986-1.719v-.806h1.967v.809c-.001.705.377 1.364 1.012 1.734zm-10.996-31.148v-8.395c0-4.963 4.037-9 9-9s9 4.037 9 9v8.395c0 1.489-.572 2.893-1.585 3.954-.814-.49-1.695-.888-2.635-1.171l-.407-1.22c1.585-1.081 2.627-2.9 2.627-4.958v-6h-2v6c0 2.206-1.794 4-4 4h-2c-2.206 0-4-1.794-4-4v-5.764c0-.822.376-1.575 1.008-2.065l4.478 2.687 1.029-1.715-5.471-3.283-.491.245c-1.574.789-2.553 2.372-2.553 4.131v5.764c0 2.058 1.042 3.877 2.626 4.958l-.407 1.22c-.94.283-1.821.681-2.635 1.171-1.012-1.061-1.584-2.465-1.584-3.954zm11.471 6.605h-4.943c-.324-.912-.505-1.876-.521-2.86l.449-1.348c.494.131 1.01.208 1.544.208h2c.534 0 1.05-.077 1.543-.209l.449 1.348c-.015.985-.196 1.949-.521 2.861zm-1.007 2c-.416.623-.9 1.202-1.464 1.707-.564-.505-1.048-1.084-1.464-1.707zm-12.464 5.246c0-3.985 2.453-7.485 6.087-8.9.367 2.94 1.919 5.659 4.312 7.454l.601.45.601-.45c2.393-1.795 3.945-4.514 4.312-7.454 3.635 1.415 6.087 4.915 6.087 8.9v.754h-22z"/><path d="m51.5 4.585h2v5.831h-2z" transform="matrix(.515 -.858 .858 .515 19.058 48.66)"/><path d="m52 15.764c-.381.762-1.147 1.236-2 1.236h-3v2h3c1.615 0 3.067-.897 3.789-2.342l.105-.211-1.789-.895z"/><path d="m47 55c0 1.654 1.346 3 3 3s3-1.346 3-3-1.346-3-3-3-3 1.346-3 3zm4 0c0 .552-.448 1-1 1s-1-.448-1-1 .448-1 1-1 1 .448 1 1z"/></g></svg>