<svg id="Layer_5" enable-background="new 0 0 64 64" height="512" viewBox="0 0 64 64" width="512" xmlns="http://www.w3.org/2000/svg"><g><path d="m55 33h-18v-4c1.103 0 2-.897 2-2h1c2.757 0 5-2.243 5-5v-2c0-2.757-2.243-5-5-5h-3v-2h1c.883 0 1.67-.391 2.22-1h1.78c1.654 0 3-1.346 3-3v-4c0-1.654-1.346-3-3-3h-1.78c-.55-.609-1.337-1-2.22-1h-12c-1.065 0-1.997.562-2.529 1.401-.437-.248-.934-.401-1.471-.401h-16c-2.757 0-5 2.243-5 5s2.243 5 5 5h16c.537 0 1.034-.153 1.471-.401.532.839 1.464 1.401 2.529 1.401h1v10c-1.103 0-2 .897-2 2v2c0 1.103.897 2 2 2v4h-3c-2.266 0-4.162 1.524-4.774 3.594l-10.226-4.261v-.333c0-1.654-1.346-3-3-3h-2c-1.654 0-3 1.346-3 3v28c0 1.654 1.346 3 3 3h2c1.654 0 3-1.346 3-3v-.333l10.226-4.261c.612 2.07 2.508 3.594 4.774 3.594h31c4.411 0 8-3.589 8-8v-10c0-4.411-3.589-8-8-8zm-42 16h-4v-2h4zm0-4h-4v-2h4zm0-4h-4v-2h4zm-4 10h4v2h-4zm6-14 4 1.667v14.667l-4 1.666zm-2-.833v.833h-4v-2.5zm-6 23.833c0 .552-.448 1-1 1h-2c-.552 0-1-.448-1-1v-28c0-.552.448-1 1-1h2c.552 0 1 .448 1 1zm2-5h4v.833l-4 1.667zm31-38c1.654 0 3 1.346 3 3v2c0 1.654-1.346 3-3 3h-1c0-1.103-.897-2-2-2v-6zm2-13c.552 0 1 .448 1 1v4c0 .552-.448 1-1 1h-1v-6zm-25.5 5.086-2.086-2.086 2.086-2.086 2.086 2.086zm1.914-5.086h3.172l-1.586 1.586zm-5.414 1.586-1.586-1.586h3.172zm-3.5-.672 2.086 2.086-2.086 2.086-2.086-2.086zm3.5 3.5 1.586 1.586h-3.172zm7 0 1.586 1.586h-3.172zm1.414-1.414 1.586-1.586v3.172zm-13.828-3-1.586 1.586-1.285-1.285c.391-.188.823-.301 1.285-.301zm-4.285 4.285c-.188-.391-.301-.823-.301-1.285s.113-.894.301-1.285l1.285 1.285zm1.414 1.414 1.285-1.285 1.586 1.586h-1.586c-.462 0-.894-.113-1.285-.301zm20.285.301v-1-4-1c0-.552.448-1 1-1h12c.552 0 1 .448 1 1v6c0 .552-.448 1-1 1h-12c-.552 0-1-.448-1-1zm4 3h6v10h-6zm-2 12h10l.002 2h-10.002zm2 4h6v4h-6zm32 22c0 3.309-2.691 6-6 6h-31c-1.654 0-3-1.346-3-3v-16c0-1.654 1.346-3 3-3h31c3.309 0 6 2.691 6 6z"/><path d="m54 37h-29c-1.103 0-2 .897-2 2v14c0 1.103.897 2 2 2h29c2.757 0 5-2.243 5-5v-8c0-2.757-2.243-5-5-5zm-3 12v-6h6v6zm3 4h-29v-14h29c1.302 0 2.402.839 2.816 2h-7.816v10h7.816c-.414 1.161-1.514 2-2.816 2z"/><path d="m27 51h14v-10h-14zm2-8h10v6h-10z"/></g></svg>